<svg width="40" height="40" viewBox="0 0 40 40" fill="none" xmlns="http://www.w3.org/2000/svg">
<path d="M20.9782 8.6364C20.7944 8.2467 20.4152 8 20 8C19.5848 8 19.2056 8.2467 19.0218 8.6364L15.9045 15.2462L8.93316 16.3127C8.52237 16.3755 8.18127 16.6769 8.05322 17.0903C7.92517 17.5036 8.03238 17.9572 8.32978 18.2604L13.3733 23.4017L12.183 30.6652C12.1128 31.0936 12.2811 31.5265 12.617 31.782C12.953 32.0374 13.3984 32.0711 13.766 31.8688L20 28.4375L26.234 31.8688C26.6016 32.0711 27.047 32.0374 27.383 31.782C27.7189 31.5265 27.8872 31.0936 27.817 30.6652L26.6267 23.4017L31.6702 18.2604C31.9676 17.9572 32.0748 17.5036 31.9468 17.0903C31.8187 16.6769 31.4776 16.3755 31.0668 16.3127L24.0955 15.2462L20.9782 8.6364Z" fill="#B5C7A3"/>
</svg>
