<svg width="36" height="37" viewBox="0 0 36 37" fill="none" xmlns="http://www.w3.org/2000/svg">
<path d="M9.98087 13.8044C9.61262 11.9064 11.3228 10.2016 13.9353 9.57696C14.3989 9.46604 14.8991 9.49762 15.334 9.66525C15.7689 9.83288 16.1058 10.124 16.276 10.4792L17.1147 12.2293C17.2497 12.5108 17.2741 12.8175 17.1848 13.11C17.0955 13.4025 16.8965 13.6674 16.6134 13.8708L14.1185 15.6586C13.9955 15.7469 13.9039 15.8586 13.8525 15.9829C13.8011 16.1072 13.7918 16.2397 13.8254 16.3677L13.8486 16.4461L13.9083 16.6423C14.2186 17.5952 14.6914 18.5112 15.3139 19.3655C15.992 20.2733 16.8335 21.1 17.8126 21.8202L17.8898 21.8745C18.0143 21.961 18.1654 22.0208 18.3283 22.048C18.4911 22.0752 18.6602 22.069 18.8191 22.0299L22.0447 21.2348C22.4113 21.1447 22.8039 21.1424 23.1722 21.2282C23.5405 21.3139 23.8676 21.4838 24.1116 21.7161L25.6386 23.1659C26.2749 23.7694 26.1978 24.6565 25.467 25.1891C23.4676 26.648 20.7182 26.9468 18.8056 25.7443C16.4611 24.2645 14.4847 22.4597 12.9751 20.4201C11.4533 18.382 10.4368 16.1375 9.97895 13.8044H9.98087ZM15.848 16.4672L17.9148 14.9827C18.4814 14.5761 18.8797 14.0464 19.0587 13.4614C19.2377 12.8764 19.1891 12.263 18.9193 11.6997L18.0826 9.94961C17.74 9.23486 17.0621 8.6492 16.1869 8.31197C15.3118 7.97474 14.3052 7.91132 13.3723 8.13463C10.1274 8.91162 7.5226 11.1883 8.07403 14.0322C8.45964 16.0176 9.34847 18.5432 11.3093 21.1805C12.938 23.3797 15.0699 25.3257 17.5986 26.9211C20.4676 28.724 24.2967 28.1085 26.7839 26.295C27.4956 25.7765 27.9275 25.065 27.9917 24.3057C28.0558 23.5465 27.7473 22.7967 27.129 22.2094L25.602 20.758C25.1135 20.2941 24.459 19.9549 23.7225 19.7839C22.986 19.6129 22.201 19.618 21.4682 19.7985L18.7902 20.4578C18.0987 19.8999 17.493 19.2807 16.9855 18.6126C16.4952 17.9373 16.1132 17.2172 15.848 16.4688V16.4672Z" fill="#7E8577"/>
</svg>
