<svg width="36" height="36" viewBox="0 0 36 36" fill="none" xmlns="http://www.w3.org/2000/svg">
<path d="M12.3057 8.04867C11.1885 8.19711 10.1533 8.72054 9.36816 9.53695C8.68848 10.244 8.24707 11.119 8.05566 12.1385C7.98145 12.5213 7.98145 23.4901 8.05566 23.8729C8.4502 25.9627 9.93066 27.4705 12.0088 27.9159C12.3213 27.9823 12.6846 27.9862 17.9854 27.9862C24.251 27.9862 23.8174 28.0018 24.6455 27.7284C26.1104 27.2401 27.3369 25.9666 27.7666 24.4784C27.9736 23.7674 27.9658 24.0057 27.9658 17.9862C27.9658 11.744 27.9814 12.1737 27.708 11.3455C27.2393 9.93539 26.0518 8.75179 24.6338 8.27914C23.8213 8.00961 24.3018 8.02914 18.1416 8.02132C15.0361 8.01742 12.458 8.02914 12.3057 8.04867ZM23.8057 10.1073C24.8838 10.4354 25.6064 11.1737 25.8877 12.2284L25.9736 12.5565V18.0057V23.4549L25.8877 23.783C25.5986 24.8573 24.8369 25.619 23.7627 25.908L23.4346 25.994H17.9658H12.4971L12.1846 25.9041C11.1143 25.5955 10.3955 24.8729 10.0869 23.8065L9.99707 23.494V18.0057V12.5174L10.0869 12.2049C10.3174 11.3963 10.79 10.7869 11.501 10.3768C11.7236 10.2479 12.2197 10.0838 12.5088 10.0409C12.6299 10.0213 15.1572 10.0096 18.1221 10.0135L23.5127 10.0174L23.8057 10.1073Z" fill="#7E8577"/>
<path d="M22.7432 12.0448C22.3564 12.1502 22.0986 12.4198 22.0127 12.8182C21.9189 13.2323 22.1377 13.6815 22.5283 13.8807C23.458 14.3534 24.376 13.3026 23.7939 12.4315C23.5791 12.1112 23.1182 11.9432 22.7432 12.0448Z" fill="#7E8577"/>
<path d="M17.3057 13.0488C15.4229 13.3066 13.8447 14.5957 13.2588 16.3574C13.0596 16.9629 13.0049 17.2988 13.0049 18.0059C13.0049 18.7129 13.0596 19.0488 13.2588 19.6543C13.8135 21.3105 15.2236 22.5371 17.0088 22.916C17.4697 23.0137 18.501 23.0137 18.9619 22.916C20.751 22.5371 22.1572 21.3145 22.7119 19.6543C22.9111 19.0488 22.9658 18.7129 22.9658 18.0059C22.9658 17.5371 22.9463 17.2715 22.8955 17.0293C22.6768 16.002 22.2158 15.1387 21.5127 14.4434C20.8096 13.752 19.9736 13.3066 18.9814 13.1035C18.6104 13.0254 17.6846 12.9941 17.3057 13.0488ZM18.8057 15.1152C19.8408 15.4043 20.5986 16.166 20.8799 17.209C21.001 17.6426 21.001 18.3691 20.8799 18.8027C20.5986 19.8535 19.833 20.6191 18.7822 20.9004C18.333 21.0254 17.6143 21.0254 17.1846 20.9004C16.1221 20.5996 15.3877 19.8652 15.0908 18.8066C14.9658 18.3652 14.9658 17.6465 15.0908 17.2051C15.3135 16.4043 15.79 15.7871 16.501 15.377C16.7197 15.252 17.2158 15.084 17.5088 15.0371C17.8369 14.9863 18.4697 15.0254 18.8057 15.1152Z" fill="#7E8577"/>
</svg>
