<svg width="37" height="37" viewBox="0 0 37 37" fill="none" xmlns="http://www.w3.org/2000/svg">
<path d="M10.8826 8.04543C10.2185 8.17238 9.50565 8.72903 9.20292 9.36379C8.97831 9.84231 8.90995 10.3599 9.01249 10.8335C9.12479 11.3364 9.30546 11.6978 9.61307 12.0298C11.1072 13.6363 13.739 12.6011 13.739 10.4038C13.739 8.87063 12.3865 7.75735 10.8826 8.04543Z" fill="#7E8577"/>
<path d="M22.9674 14.4326C22.7379 14.4814 22.4449 14.5596 22.3082 14.6035C21.4928 14.8867 20.6725 15.5117 20.233 16.2002L20.0377 16.4932L20.028 15.5752L20.0133 14.6523L18.026 14.6377L16.0338 14.6279V21.3174V28.0068H18.109H20.1842V24.4277C20.1842 20.8633 20.2086 20.2822 20.36 19.6816C20.5406 18.9785 20.9703 18.417 21.5123 18.168C22.069 17.9141 22.9625 17.8848 23.524 18.0947C24.066 18.2998 24.4713 18.8027 24.6471 19.4912C24.7936 20.0625 24.8229 20.8535 24.8229 24.4033V27.958H26.8981H28.9733V24.0615C28.9733 20.0332 28.944 19.1445 28.7731 18.1924C28.3727 15.9219 27.2203 14.7207 25.1305 14.4082C24.4713 14.3105 23.4899 14.3203 22.9674 14.4326Z" fill="#7E8577"/>
<path d="M9.29553 21.3174V28.0068H11.3707H13.4459V21.3174V14.6279H11.3707H9.29553V21.3174Z" fill="#7E8577"/>
</svg>
