<svg width="40" height="37" viewBox="0 0 40 37" fill="none" xmlns="http://www.w3.org/2000/svg">
<path d="M10.4 8.00342H29.6C30.2365 8.00342 30.847 8.26681 31.2971 8.73565C31.7471 9.20449 32 9.84038 32 10.5034V25.5034C32 26.1665 31.7471 26.8023 31.2971 27.2712C30.847 27.74 30.2365 28.0034 29.6 28.0034H10.4C9.068 28.0034 8 26.8784 8 25.5034V10.5034C8 9.11592 9.068 8.00342 10.4 8.00342ZM20 16.7534L29.6 10.5034H10.4L20 16.7534ZM10.4 25.5034H29.6V13.4659L20 19.7034L10.4 13.4659V25.5034Z" fill="#7E8577"/>
</svg>
